#N canvas 0 25 1440 776 12;
#X text 166 264 creation arguments are OSC address;
#X text 168 225 set message to change OSC address;
#X text 153 35 1 Set IP Address : network address;
#X text 153 55 2 Set Ports (sending and listening);
#X text 153 74 3 Set OSC Addresses (routing osc data;
#X text 144 13 Key Settings;
#X floatatom 32 181 5 0 0 0 - - - 0;
#N canvas 5 43 660 520 oscReceive 1;
#X obj 55 184 netreceive -u -b;
#X msg 78 143 listen 0;
#X text 152 143 stop listening;
#X text 64 58 packets from network;
#X text 173 177 UDP packets \, binary output, f 13;
#X obj 45 314 print;
#X obj 45 272 oscparse;
#X text 150 114 listen on port 8000;
#X obj 177 269 oscparse;
#X obj 177 293 list trim;
#X text 241 267 Parse the OSC message;
#X obj 177 319 route unity;
#X msg 66 115 listen 8000;
#X obj 66 84 loadbang;
#X floatatom 244 382 5 0 0 0 - - - 0;
#X floatatom 339 382 5 0 0 0 - - - 0;
#X obj 243 359 route test2;
#X obj 338 359 route test3;
#X obj 244 409 s val2;
#X obj 339 409 s val3;
#X obj 139 357 route ready;
#X obj 139 399 s bgm;
#X connect 0 0 6 0;
#X connect 0 0 8 0;
#X connect 1 0 0 0;
#X connect 6 0 5 0;
#X connect 8 0 9 0;
#X connect 9 0 11 0;
#X connect 11 0 16 0;
#X connect 11 0 17 0;
#X connect 11 0 20 0;
#X connect 12 0 0 0;
#X connect 13 0 12 0;
#X connect 14 0 18 0;
#X connect 15 0 19 0;
#X connect 16 0 14 0;
#X connect 17 0 15 0;
#X connect 20 0 21 0;
#X restore 36 129 pd oscReceive;
#X obj 36 23 tgl 15 0 empty empty empty 17 7 0 10 #0400ff #000000 #000000 0 1;
#X msg 35 53 \; pd dsp \$1;
#X obj 33 265 oscformat PD message;
#X msg 65 226 set PD message;
#N canvas 721 279 791 621 oscSend 0;
#X msg 158 207 disconnect;
#X obj 61 253 netsend -u -b;
#X obj 59 55 list prepend send;
#X obj 59 80 list trim;
#X msg 150 175 connect 127.0.0.1 8001;
#X obj 59 29 r oscOut;
#X text 301 163 send to port 8001;
#X msg 147 148 connect localhost 8001;
#X obj 147 108 loadbang;
#X obj 306 320 print;
#X connect 0 0 1 0;
#X connect 2 0 3 0;
#X connect 3 0 1 0;
#X connect 3 0 9 0;
#X connect 4 0 1 0;
#X connect 5 0 2 0;
#X connect 7 0 1 0;
#X connect 8 0 7 0;
#X restore 36 105 pd oscSend;
#X obj 33 300 s oscOut;
#X obj 2246 827 soundfiler;
#X obj 2247 771 bng 15 250 50 0 empty empty empty 17 7 0 10 #ffe3c6 #000000 #000000;
#X obj 2247 744 loadbang;
#X msg 2076 850 0;
#N canvas 212 36 450 300 (subpatch) 0;
#X array soundData 462664 float 0;
#X coords 0 1 462663 -1 300 100 1;
#X restore 1008 78 graph;
#X obj 2074 896 tabplay~ soundData;
#X obj 2045 849 bng 15 250 50 0 empty empty empty 17 7 0 10 #fcfcfc #000000 #000000;
#X floatatom 2246 851 15 0 0 0 - - - 0;
#X msg 2111 851 stop;
#X obj 2246 877 / 44100;
#X obj 2246 946 * 1000;
#X floatatom 2246 972 8 0 0 0 - - - 0;
#X obj 2247 1002 s loopTime;
#X obj 2060 802 metro 1000;
#X obj 2118 754 r loopTime;
#X obj 2058 767 tgl 15 0 empty samPlay empty 17 7 0 10 #00ff04 #000000 #000000 0 1;
#X floatatom 2117 778 5 0 0 0 - - - 0;
#X floatatom 2246 912 5 0 0 0 - - - 0;
#X obj 2067 1144 dac~;
#X obj 2074 1079 *~;
#X obj 1994 963 vsl 15 128 0 1 0 0 empty masterVol empty 0 -9 0 10 #00ff04 #000000 #000000 0 1;
#X msg 2218 802 read -resize Piano.wav soundData;
#X text 2251 651 Sample;
#X obj -454 838 *~;
#X obj -455 870 dac~;
#X obj -363 787 vsl 15 128 0 1 0 0 empty masterVol empty 0 -9 0 10 #00ff04 #000000 #000000 0 1;
#X obj 54 826 *~;
#X obj 55 853 dac~;
#X text -265 550 Square;
#X obj 146 774 vsl 15 128 0 1 0 0 empty masterVol empty 0 -9 0 10 #00ff04 #000000 #000000 0 1;
#X obj 1347 1033 *~;
#X obj 1338 1070 dac~;
#X text 1381 755 Triangle;
#X obj 667 917 *~;
#X obj 668 958 dac~;
#X obj 722 884 vsl 15 128 0 1 0 0 empty masterVol empty 0 -9 0 10 #00ff04 #000000 #000000 0 1;
#X obj 1406 995 vsl 15 128 0 1 0 0 empty masterVol empty 0 -9 0 10 #00ff04 #000000 #000000 0 1;
#N canvas 0 50 450 300 (subpatch) 0;
#X array array_waves 2051 float 0;
#X coords 0 1 2050 -1 200 100 1 0 0;
#X restore 1041 218 graph;
#X obj 876 268 metro 100;
#X obj 877 238 tgl 15 0 empty empty empty 17 7 0 10 #fcfcfc #000000 #000000 0 1;
#X obj 876 300 tabwrite~ array_waves;
#X obj 588 93 vsl 15 128 0 1 0 0 masterVol empty Master\ Volume 0 -9 0 10 #00ff04 #000000 #000000 0 1;
#X text 889 26 Debug + Visualizers;
#X text -681 -8 Top Left I like being able to scroll;
#X text 2415 1493 Bottom Right I like being able to scroll;
#X obj 624 857 vline~;
#X obj 657 893 *~;
#X obj 703 180 s masterBang;
#X obj -551 814 r masterBang;
#X obj -44 802 r masterBang;
#X obj 522 855 r masterBang;
#X obj 1230 728 r masterBang;
#X text 661 515 Noise;
#X obj 681 857 noise~;
#N canvas -91 267 1920 1136 Square1 0;
#X obj 744 472 phasor~;
#X obj 819 471 phasor~;
#X obj 818 432 * -1;
#X obj 761 534 +~;
#X obj 759 567 -~ 1;
#X msg 831 384 0;
#X msg 879 384 0.5;
#X text 737 331 Square;
#X obj 859 345 bng 15 250 50 0 empty empty empty 17 7 0 10 #ffe3c6 #000000 #000000;
#X obj 861 311 loadbang;
#X obj 749 650 *~;
#X obj 692 590 vline~;
#X obj 604 294 inlet;
#X obj 526 292 inlet;
#X text 325 289 Left Inlet: Vline envelope;
#X text 608 256 Right Inlet: frequency;
#X obj 749 708 outlet~;
#X text 533 711 Output: "Raw" square wave 1;
#X connect 0 0 3 0;
#X connect 1 0 3 1;
#X connect 2 0 1 0;
#X connect 3 0 4 0;
#X connect 4 0 10 1;
#X connect 5 0 0 1;
#X connect 6 0 1 1;
#X connect 8 0 5 0;
#X connect 8 0 6 0;
#X connect 9 0 8 0;
#X connect 10 0 16 0;
#X connect 11 0 10 0;
#X connect 12 0 0 0;
#X connect 12 0 2 0;
#X connect 13 0 11 0;
#X restore -453 811 pd Square1;
#N canvas -103 247 1920 1136 Square2 0;
#X obj 744 472 phasor~;
#X obj 819 471 phasor~;
#X obj 818 432 * -1;
#X obj 761 534 +~;
#X obj 759 567 -~ 1;
#X msg 831 384 0;
#X msg 879 384 0.5;
#X text 737 331 Square;
#X obj 859 345 bng 15 250 50 0 empty empty empty 17 7 0 10 #ffe3c6 #000000 #000000;
#X obj 861 311 loadbang;
#X obj 749 650 *~;
#X obj 692 590 vline~;
#X obj 604 294 inlet;
#X obj 526 292 inlet;
#X text 325 289 Left Inlet: Vline envelope;
#X text 608 256 Right Inlet: frequency;
#X obj 749 708 outlet~;
#X text 533 711 Output: "Raw" square wave 1;
#X connect 0 0 3 0;
#X connect 1 0 3 1;
#X connect 2 0 1 0;
#X connect 3 0 4 0;
#X connect 4 0 10 1;
#X connect 5 0 0 1;
#X connect 6 0 1 1;
#X connect 8 0 5 0;
#X connect 8 0 6 0;
#X connect 9 0 8 0;
#X connect 10 0 16 0;
#X connect 11 0 10 0;
#X connect 12 0 0 0;
#X connect 12 0 2 0;
#X connect 13 0 11 0;
#X restore 53 801 pd Square2;
#N canvas -408 186 1920 1136 Triangle 0;
#X obj 748 532 phasor~;
#X obj 823 531 phasor~;
#X obj 822 492 * -1;
#X obj 759 673 +~;
#X msg 841 438 0;
#X obj 828 557 *~ 2;
#X obj 748 565 *~ 2;
#X obj 748 592 -~ 1;
#X obj 827 585 -~ 1;
#X obj 750 624 clip~ 0 1;
#X obj 827 616 clip~ 0 1;
#X obj 840 411 bng 15 250 50 0 empty empty empty 17 7 0 10 #ffe3c6 #000000 #000000;
#X obj 840 384 loadbang;
#X obj 679 692 vline~;
#X obj 764 731 *~;
#X obj 741 437 inlet;
#X obj 615 521 inlet;
#X obj 753 793 outlet~;
#X text 519 603 Vline envelope;
#X text 699 393 Frequency;
#X connect 0 0 6 0;
#X connect 1 0 5 0;
#X connect 2 0 1 0;
#X connect 3 0 14 1;
#X connect 4 0 0 1;
#X connect 4 0 1 1;
#X connect 5 0 8 0;
#X connect 6 0 7 0;
#X connect 7 0 9 0;
#X connect 8 0 10 0;
#X connect 9 0 3 0;
#X connect 10 0 3 1;
#X connect 11 0 4 0;
#X connect 12 0 11 0;
#X connect 13 0 14 0;
#X connect 14 0 17 0;
#X connect 15 0 0 0;
#X connect 15 0 2 0;
#X connect 16 0 13 0;
#X restore 1313 1005 pd Triangle;
#N canvas 114 114 1920 1136 soundExample 0;
#X obj 588 140 inlet;
#X text 363 133 Trigger bang/ start on/off;
#X floatatom 656 276 5 0 0 0 - - - 0;
#X msg 467 263 0.5 25 \, 0 100 75;
#X msg 652 209 73;
#X obj 827 395 outlet;
#X obj 342 373 outlet;
#X text 215 329 envelope output;
#X text 875 332 Frequency output;
#X obj 654 248 mtof;
#X connect 0 0 4 0;
#X connect 0 0 3 0;
#X connect 2 0 5 0;
#X connect 3 0 6 0;
#X connect 4 0 9 0;
#X connect 9 0 2 0;
#X restore -169 24 pd soundExample;
#X obj 589 273 tgl 15 0 samPlay empty Play\ Sample 17 7 0 10 #00ff04 #000000 #000000 0 1;
#N canvas 0 25 1440 776 musicTest 0;
#X obj 310 514 mtof;
#X floatatom 310 492 5 0 0 0 - - - 0;
#X obj 238 224 f;
#X msg 261 442 71;
#X msg 297 443 72;
#X msg 334 443 74;
#X msg 373 443 76;
#X msg 406 442 78;
#X msg 440 442 79;
#X obj 255 371 select 0 1 2 3 4 5 6 7;
#X obj 244 263 mod 8;
#X floatatom 250 328 5 0 0 0 - - - 0;
#X floatatom 351 211 5 0 0 0 - - - 0;
#X obj 361 179 f;
#X obj 401 180 * -1;
#X msg 364 141 1;
#X obj 371 106 loadbang;
#X obj 480 138 bng 16 250 50 0 empty empty Toggles\ going\ up/down\ the\ scale 0 -8 0 10 #fcfcfc #000000 #000000;
#X obj 282 225 +;
#X msg 112 509 1 16 \, 2 80 80 \, 0 80 240;
#X text 23 148 Volume Control (Smaller = quieter);
#X text 400 208 Alternates between +1 to the mod'd number and -1 to go up then down the scale;
#X text 622 505 Arbitrarily decided on ?rhythm? ?envelope? idk numbers go brrr;
#X text 503 135 Not intended to be part of the controls;
#X text 483 154 But \, theoretically \, you could mess with it;
#X obj 241 57 inlet;
#X obj 255 109 tgl 19 0 empty empty empty 0 -10 0 12 #fcfcfc #000000 #000000 0 1;
#X obj 235 177 metro 600;
#X msg 184 449 67;
#X msg 221 451 69;
#X obj 85 579 outlet;
#X obj 312 575 outlet;
#X connect 0 0 31 0;
#X connect 1 0 0 0;
#X connect 2 0 10 0;
#X connect 2 0 18 0;
#X connect 3 0 1 0;
#X connect 4 0 1 0;
#X connect 5 0 1 0;
#X connect 6 0 1 0;
#X connect 7 0 1 0;
#X connect 8 0 1 0;
#X connect 9 0 17 0;
#X connect 9 0 28 0;
#X connect 9 1 29 0;
#X connect 9 2 3 0;
#X connect 9 3 4 0;
#X connect 9 4 5 0;
#X connect 9 5 6 0;
#X connect 9 6 7 0;
#X connect 9 7 8 0;
#X connect 9 7 17 0;
#X connect 10 0 11 0;
#X connect 11 0 9 0;
#X connect 12 0 18 1;
#X connect 13 0 14 0;
#X connect 13 0 12 0;
#X connect 14 0 13 1;
#X connect 15 0 2 0;
#X connect 15 0 13 0;
#X connect 16 0 15 0;
#X connect 17 0 13 0;
#X connect 18 0 2 1;
#X connect 19 0 30 0;
#X connect 25 0 26 0;
#X connect 26 0 27 0;
#X connect 27 0 2 0;
#X connect 27 0 19 0;
#X connect 27 0 12 0;
#X connect 28 0 1 0;
#X connect 29 0 1 0;
#X restore -164 74 pd musicTest;
#N canvas 1874 235 1920 1136 musicTest 0;
#X obj 310 514 mtof;
#X floatatom 310 492 5 0 0 0 - - - 0;
#X obj 238 224 f;
#X msg 261 442 71;
#X msg 297 443 72;
#X msg 334 443 74;
#X msg 373 443 76;
#X msg 406 442 78;
#X msg 440 442 79;
#X obj 255 371 select 0 1 2 3 4 5 6 7;
#X obj 244 263 mod 8;
#X floatatom 250 328 5 0 0 0 - - - 0;
#X floatatom 351 211 5 0 0 0 - - - 0;
#X obj 361 179 f;
#X obj 401 180 * -1;
#X msg 364 141 1;
#X obj 371 106 loadbang;
#X obj 480 138 bng 16 250 50 0 empty empty Toggles\ going\ up/down\ the\ scale 0 -8 0 10 #fcfcfc #000000 #000000;
#X obj 282 225 +;
#X msg 112 509 1 16 \, 2 80 80 \, 0 80 240;
#X text 23 148 Volume Control (Smaller = quieter);
#X text 400 208 Alternates between +1 to the mod'd number and -1 to go up then down the scale;
#X text 622 505 Arbitrarily decided on ?rhythm? ?envelope? idk numbers go brrr;
#X text 503 135 Not intended to be part of the controls;
#X text 483 154 But \, theoretically \, you could mess with it;
#X obj 241 57 inlet;
#X obj 255 109 tgl 19 0 empty empty empty 0 -10 0 12 #fcfcfc #000000 #000000 0 1;
#X obj 235 177 metro 600;
#X msg 184 449 67;
#X msg 221 451 69;
#X obj 85 579 outlet;
#X obj 312 575 outlet;
#X connect 0 0 31 0;
#X connect 1 0 0 0;
#X connect 2 0 10 0;
#X connect 2 0 18 0;
#X connect 3 0 1 0;
#X connect 4 0 1 0;
#X connect 5 0 1 0;
#X connect 6 0 1 0;
#X connect 7 0 1 0;
#X connect 8 0 1 0;
#X connect 9 0 17 0;
#X connect 9 0 28 0;
#X connect 9 1 29 0;
#X connect 9 2 3 0;
#X connect 9 3 4 0;
#X connect 9 4 5 0;
#X connect 9 5 6 0;
#X connect 9 6 7 0;
#X connect 9 7 8 0;
#X connect 9 7 17 0;
#X connect 10 0 11 0;
#X connect 11 0 9 0;
#X connect 12 0 18 1;
#X connect 13 0 14 0;
#X connect 13 0 12 0;
#X connect 14 0 13 1;
#X connect 15 0 2 0;
#X connect 15 0 13 0;
#X connect 16 0 15 0;
#X connect 17 0 13 0;
#X connect 18 0 2 1;
#X connect 19 0 30 0;
#X connect 25 0 26 0;
#X connect 26 0 27 0;
#X connect 27 0 2 0;
#X connect 27 0 19 0;
#X connect 27 0 12 0;
#X connect 28 0 1 0;
#X connect 29 0 1 0;
#X restore 1305 897 pd musicTest;
#N canvas 1874 235 1920 1136 musicTest 0;
#X obj 310 514 mtof;
#X floatatom 310 492 5 0 0 0 - - - 0;
#X obj 238 224 f;
#X msg 261 442 71;
#X msg 297 443 72;
#X msg 334 443 74;
#X msg 373 443 76;
#X msg 406 442 78;
#X msg 440 442 79;
#X obj 255 371 select 0 1 2 3 4 5 6 7;
#X obj 244 263 mod 8;
#X floatatom 250 328 5 0 0 0 - - - 0;
#X floatatom 351 211 5 0 0 0 - - - 0;
#X obj 361 179 f;
#X obj 401 180 * -1;
#X msg 364 141 1;
#X obj 371 106 loadbang;
#X obj 480 138 bng 16 250 50 0 empty empty Toggles\ going\ up/down\ the\ scale 0 -8 0 10 #fcfcfc #000000 #000000;
#X obj 282 225 +;
#X msg 112 509 1 16 \, 2 80 80 \, 0 80 240;
#X text 23 148 Volume Control (Smaller = quieter);
#X text 400 208 Alternates between +1 to the mod'd number and -1 to go up then down the scale;
#X text 622 505 Arbitrarily decided on ?rhythm? ?envelope? idk numbers go brrr;
#X text 503 135 Not intended to be part of the controls;
#X text 483 154 But \, theoretically \, you could mess with it;
#X obj 241 57 inlet;
#X obj 255 109 tgl 19 0 empty empty empty 0 -10 0 12 #fcfcfc #000000 #000000 0 1;
#X obj 235 177 metro 600;
#X msg 184 449 67;
#X msg 221 451 69;
#X obj 85 579 outlet;
#X obj 312 575 outlet;
#X connect 0 0 31 0;
#X connect 1 0 0 0;
#X connect 2 0 10 0;
#X connect 2 0 18 0;
#X connect 3 0 1 0;
#X connect 4 0 1 0;
#X connect 5 0 1 0;
#X connect 6 0 1 0;
#X connect 7 0 1 0;
#X connect 8 0 1 0;
#X connect 9 0 17 0;
#X connect 9 0 28 0;
#X connect 9 1 29 0;
#X connect 9 2 3 0;
#X connect 9 3 4 0;
#X connect 9 4 5 0;
#X connect 9 5 6 0;
#X connect 9 6 7 0;
#X connect 9 7 8 0;
#X connect 9 7 17 0;
#X connect 10 0 11 0;
#X connect 11 0 9 0;
#X connect 12 0 18 1;
#X connect 13 0 14 0;
#X connect 13 0 12 0;
#X connect 14 0 13 1;
#X connect 15 0 2 0;
#X connect 15 0 13 0;
#X connect 16 0 15 0;
#X connect 17 0 13 0;
#X connect 18 0 2 1;
#X connect 19 0 30 0;
#X connect 25 0 26 0;
#X connect 26 0 27 0;
#X connect 27 0 2 0;
#X connect 27 0 19 0;
#X connect 27 0 12 0;
#X connect 28 0 1 0;
#X connect 29 0 1 0;
#X restore 18 680 pd musicTest;
#N canvas 0 25 1440 776 musicTest 0;
#X obj 310 514 mtof;
#X floatatom 310 492 5 0 0 0 - - - 0;
#X obj 238 224 f;
#X msg 261 442 71;
#X msg 297 443 72;
#X msg 334 443 74;
#X msg 373 443 76;
#X msg 406 442 78;
#X msg 440 442 79;
#X obj 255 371 select 0 1 2 3 4 5 6 7;
#X obj 244 263 mod 8;
#X floatatom 250 328 5 0 0 0 - - - 0;
#X floatatom 351 211 5 0 0 0 - - - 0;
#X obj 361 179 f;
#X obj 401 180 * -1;
#X msg 364 141 1;
#X obj 371 106 loadbang;
#X obj 480 138 bng 16 250 50 0 empty empty Toggles\ going\ up/down\ the\ scale 0 -8 0 10 #fcfcfc #000000 #000000;
#X obj 282 225 +;
#X msg 112 509 1 16 \, 2 80 80 \, 0 80 240;
#X text 23 148 Volume Control (Smaller = quieter);
#X text 400 208 Alternates between +1 to the mod'd number and -1 to go up then down the scale;
#X text 622 505 Arbitrarily decided on ?rhythm? ?envelope? idk numbers go brrr;
#X text 503 135 Not intended to be part of the controls;
#X text 483 154 But \, theoretically \, you could mess with it;
#X obj 241 57 inlet;
#X obj 255 109 tgl 19 0 empty empty empty 0 -10 0 12 #fcfcfc #000000 #000000 0 1;
#X obj 235 177 metro 600;
#X msg 184 449 67;
#X msg 221 451 69;
#X obj 85 579 outlet;
#X obj 312 575 outlet;
#X connect 0 0 31 0;
#X connect 1 0 0 0;
#X connect 2 0 10 0;
#X connect 2 0 18 0;
#X connect 3 0 1 0;
#X connect 4 0 1 0;
#X connect 5 0 1 0;
#X connect 6 0 1 0;
#X connect 7 0 1 0;
#X connect 8 0 1 0;
#X connect 9 0 17 0;
#X connect 9 0 28 0;
#X connect 9 1 29 0;
#X connect 9 2 3 0;
#X connect 9 3 4 0;
#X connect 9 4 5 0;
#X connect 9 5 6 0;
#X connect 9 6 7 0;
#X connect 9 7 8 0;
#X connect 9 7 17 0;
#X connect 10 0 11 0;
#X connect 11 0 9 0;
#X connect 12 0 18 1;
#X connect 13 0 14 0;
#X connect 13 0 12 0;
#X connect 14 0 13 1;
#X connect 15 0 2 0;
#X connect 15 0 13 0;
#X connect 16 0 15 0;
#X connect 17 0 13 0;
#X connect 18 0 2 1;
#X connect 19 0 30 0;
#X connect 25 0 26 0;
#X connect 26 0 27 0;
#X connect 27 0 2 0;
#X connect 27 0 19 0;
#X connect 27 0 12 0;
#X connect 28 0 1 0;
#X connect 29 0 1 0;
#X restore -468 620 pd musicTest;
#N canvas 0 25 1440 776 musicTest 0;
#X obj 310 514 mtof;
#X floatatom 310 492 5 0 0 0 - - - 0;
#X obj 238 224 f;
#X msg 261 442 71;
#X msg 297 443 72;
#X msg 334 443 74;
#X msg 373 443 76;
#X msg 406 442 78;
#X msg 440 442 79;
#X obj 255 371 select 0 1 2 3 4 5 6 7;
#X obj 244 263 mod 8;
#X floatatom 250 328 5 0 0 0 - - - 0;
#X floatatom 351 211 5 0 0 0 - - - 0;
#X obj 361 179 f;
#X obj 401 180 * -1;
#X msg 364 141 1;
#X obj 371 106 loadbang;
#X obj 480 138 bng 16 250 50 0 empty empty Toggles\ going\ up/down\ the\ scale 0 -8 0 10 #fcfcfc #000000 #000000;
#X obj 282 225 +;
#X msg 112 509 1 16 \, 2 80 80 \, 0 80 240;
#X text 23 148 Volume Control (Smaller = quieter);
#X text 400 208 Alternates between +1 to the mod'd number and -1 to go up then down the scale;
#X text 622 505 Arbitrarily decided on ?rhythm? ?envelope? idk numbers go brrr;
#X text 503 135 Not intended to be part of the controls;
#X text 483 154 But \, theoretically \, you could mess with it;
#X obj 241 57 inlet;
#X obj 255 109 tgl 19 0 empty empty empty 0 -10 0 12 #fcfcfc #000000 #000000 0 1;
#X obj 235 177 metro 600;
#X msg 184 449 67;
#X msg 221 451 69;
#X obj 85 579 outlet;
#X obj 312 575 outlet;
#X connect 0 0 31 0;
#X connect 1 0 0 0;
#X connect 2 0 10 0;
#X connect 2 0 18 0;
#X connect 3 0 1 0;
#X connect 4 0 1 0;
#X connect 5 0 1 0;
#X connect 6 0 1 0;
#X connect 7 0 1 0;
#X connect 8 0 1 0;
#X connect 9 0 17 0;
#X connect 9 0 28 0;
#X connect 9 1 29 0;
#X connect 9 2 3 0;
#X connect 9 3 4 0;
#X connect 9 4 5 0;
#X connect 9 5 6 0;
#X connect 9 6 7 0;
#X connect 9 7 8 0;
#X connect 9 7 17 0;
#X connect 10 0 11 0;
#X connect 11 0 9 0;
#X connect 12 0 18 1;
#X connect 13 0 14 0;
#X connect 13 0 12 0;
#X connect 14 0 13 1;
#X connect 15 0 2 0;
#X connect 15 0 13 0;
#X connect 16 0 15 0;
#X connect 17 0 13 0;
#X connect 18 0 2 1;
#X connect 19 0 30 0;
#X connect 25 0 26 0;
#X connect 26 0 27 0;
#X connect 27 0 2 0;
#X connect 27 0 19 0;
#X connect 27 0 12 0;
#X connect 28 0 1 0;
#X connect 29 0 1 0;
#X restore 672 698 pd musicTest;
#X obj 704 113 r bgm;
#X obj 704 144 bng 19 250 50 0 empty empty empty 0 -10 0 12 #fcfcfc #000000 #000000;
#X connect 6 0 10 0;
#X connect 8 0 9 0;
#X connect 10 0 13 0;
#X connect 11 0 10 0;
#X connect 14 0 21 0;
#X connect 15 0 35 0;
#X connect 16 0 15 0;
#X connect 17 0 19 0;
#X connect 19 0 33 0;
#X connect 20 0 19 0;
#X connect 21 0 23 0;
#X connect 22 0 19 0;
#X connect 23 0 31 0;
#X connect 24 0 25 0;
#X connect 25 0 26 0;
#X connect 27 0 20 0;
#X connect 28 0 30 0;
#X connect 29 0 27 0;
#X connect 30 0 27 1;
#X connect 31 0 24 0;
#X connect 33 0 32 0;
#X connect 33 0 32 1;
#X connect 34 0 33 1;
#X connect 35 0 14 0;
#X connect 37 0 38 0;
#X connect 37 0 38 1;
#X connect 39 0 37 1;
#X connect 40 0 41 0;
#X connect 40 0 41 1;
#X connect 43 0 40 1;
#X connect 44 0 45 0;
#X connect 44 0 45 1;
#X connect 47 0 48 0;
#X connect 47 0 48 1;
#X connect 49 0 47 1;
#X connect 50 0 44 1;
#X connect 52 0 54 0;
#X connect 53 0 52 0;
#X connect 59 0 60 0;
#X connect 60 0 47 0;
#X connect 62 0 76 0;
#X connect 63 0 75 0;
#X connect 64 0 77 0;
#X connect 65 0 74 0;
#X connect 67 0 60 1;
#X connect 68 0 37 0;
#X connect 69 0 40 0;
#X connect 70 0 44 0;
#X connect 74 0 70 0;
#X connect 74 1 70 1;
#X connect 75 0 69 0;
#X connect 75 1 69 1;
#X connect 76 0 68 0;
#X connect 76 1 68 1;
#X connect 77 0 59 0;
#X connect 77 1 67 0;
#X connect 78 0 79 0;
#X connect 79 0 61 0;
