#N canvas 517 138 1920 1136 12;
#X text 166 264 creation arguments are OSC address;
#X text 168 225 set message to change OSC address;
#X text 153 35 1 Set IP Address : network address;
#X text 153 55 2 Set Ports (sending and listening);
#X text 153 74 3 Set OSC Addresses (routing osc data;
#X text 144 13 Key Settings;
#X floatatom 32 181 5 0 0 0 - - - 0;
#N canvas -6 23 1392 648 oscReceive 1;
#X obj 55 184 netreceive -u -b;
#X msg 78 143 listen 0;
#X text 152 143 stop listening;
#X text 64 58 packets from network;
#X text 173 177 UDP packets \, binary output, f 13;
#X obj 45 314 print;
#X obj 45 272 oscparse;
#X text 150 114 listen on port 8000;
#X obj 177 269 oscparse;
#X obj 177 293 list trim;
#X text 241 267 Parse the OSC message;
#X obj 177 319 route unity;
#X msg 66 115 listen 8000;
#X obj 66 84 loadbang;
#X floatatom 244 382 5 0 0 0 - - - 0;
#X floatatom 339 382 5 0 0 0 - - - 0;
#X obj 338 359 route test3;
#X obj 339 409 s val3;
#X obj 456 361 route coin;
#X obj 457 479 s coin;
#X obj 555 359 route death;
#X obj 555 401 s death;
#X obj 110 439 route life;
#X obj 110 481 s life;
#X obj 233 445 route block;
#X obj 233 487 s block;
#X obj 332 442 route win;
#X obj 332 484 s win;
#X obj 243 359 route music;
#X obj 224 412 s musicControl;
#X floatatom 460 427 5 0 0 0 - - - 0;
#X obj 678 362 route timer;
#X floatatom 693 414 5 0 0 0 - - - 0;
#X obj 690 466 s timer;
#X obj 130 -3;
#X obj 783 358 route lowTimer;
#X obj 783 436 s lowTimer;
#X floatatom 783 399 5 0 0 0 - - - 0;
#X obj 924 361 route jump;
#X obj 931 429 s jump;
#X connect 0 0 6 0;
#X connect 0 0 8 0;
#X connect 1 0 0 0;
#X connect 6 0 5 0;
#X connect 8 0 9 0;
#X connect 9 0 11 0;
#X connect 11 0 16 0;
#X connect 11 0 18 0;
#X connect 11 0 20 0;
#X connect 11 0 22 0;
#X connect 11 0 24 0;
#X connect 11 0 26 0;
#X connect 11 0 28 0;
#X connect 11 0 31 0;
#X connect 11 0 35 0;
#X connect 11 0 38 0;
#X connect 12 0 0 0;
#X connect 13 0 12 0;
#X connect 14 0 29 0;
#X connect 15 0 17 0;
#X connect 16 0 15 0;
#X connect 18 0 30 0;
#X connect 20 0 21 0;
#X connect 22 0 23 0;
#X connect 24 0 25 0;
#X connect 26 0 27 0;
#X connect 28 0 14 0;
#X connect 30 0 19 0;
#X connect 31 0 32 0;
#X connect 32 0 33 0;
#X connect 35 0 37 0;
#X connect 37 0 36 0;
#X connect 38 0 39 0;
#X restore 36 129 pd oscReceive;
#X obj 36 23 tgl 15 0 empty empty empty 17 7 0 10 #0400ff #000000 #000000 0 1;
#X msg 35 53 \; pd dsp \$1;
#X obj 33 265 oscformat PD message;
#X msg 65 226 set PD message;
#N canvas 721 279 791 621 oscSend 0;
#X msg 158 207 disconnect;
#X obj 61 253 netsend -u -b;
#X obj 59 55 list prepend send;
#X obj 59 80 list trim;
#X msg 150 175 connect 127.0.0.1 8001;
#X obj 59 29 r oscOut;
#X text 301 163 send to port 8001;
#X msg 147 148 connect localhost 8001;
#X obj 147 108 loadbang;
#X obj 306 320 print;
#X connect 0 0 1 0;
#X connect 2 0 3 0;
#X connect 3 0 1 0;
#X connect 3 0 9 0;
#X connect 4 0 1 0;
#X connect 5 0 2 0;
#X connect 7 0 1 0;
#X connect 8 0 7 0;
#X restore 36 105 pd oscSend;
#X obj 33 300 s oscOut;
#X obj 1876 726 soundfiler;
#X obj 1877 670 bng 15 250 50 0 empty empty empty 17 7 0 10 #ffe3c6 #000000 #000000;
#X obj 1877 643 loadbang;
#X msg 1706 749 0;
#N canvas 212 36 450 300 (subpatch) 0;
#X array soundData 462664 float 0;
#X coords 0 1 462663 -1 300 100 1;
#X restore 1008 78 graph;
#X obj 1704 795 tabplay~ soundData;
#X obj 1675 748 bng 15 250 50 0 empty empty empty 17 7 0 10 #fcfcfc #000000 #000000;
#X floatatom 1876 750 15 0 0 0 - - - 0;
#X msg 1741 750 stop;
#X obj 1876 776 / 44100;
#X obj 1876 845 * 1000;
#X floatatom 1876 871 8 0 0 0 - - - 0;
#X obj 1877 901 s loopTime;
#X obj 1690 701 metro 1000;
#X obj 1748 653 r loopTime;
#X obj 1688 666 tgl 15 0 empty samPlay empty 17 7 0 10 #00ff04 #000000 #000000 0 1;
#X floatatom 1747 677 5 0 0 0 - - - 0;
#X floatatom 1876 811 5 0 0 0 - - - 0;
#X obj 1697 1043 dac~;
#X obj 1704 978 *~;
#X obj 1624 862 vsl 15 128 0 1 0 0 empty masterVol empty 0 -9 0 10 #00ff04 #000000 #000000 0 1;
#X msg 1848 701 read -resize Piano.wav soundData;
#X text 1881 550 Sample;
#X obj -454 838 *~;
#X obj -455 870 dac~;
#X obj -343 815 vsl 15 128 0 1 0 0 empty masterVol empty 0 -9 0 10 #00ff04 #000000 #000000 0 1;
#X obj 54 826 *~;
#X obj 55 853 dac~;
#X text -265 550 Square;
#X obj 202 654 vsl 15 128 0 1 0 0 empty masterVol empty 0 -9 0 10 #00ff04 #000000 #000000 0 1;
#X obj 1129 890 *~;
#X obj 1120 927 dac~;
#X text 1111 759 Triangle;
#X obj 667 917 *~;
#X obj 668 958 dac~;
#X obj 722 884 vsl 15 128 0 1 0 0 empty masterVol empty 0 -9 0 10 #00ff04 #000000 #000000 0 1;
#X obj 1188 852 vsl 15 128 0 1 0 0 empty masterVol empty 0 -9 0 10 #00ff04 #000000 #000000 0 1;
#N canvas 0 50 450 300 (subpatch) 0;
#X array array_waves 2051 float 0;
#X coords 0 1 2050 -1 200 100 1 0 0;
#X restore 1041 218 graph;
#X obj 876 268 metro 100;
#X obj 877 238 tgl 15 0 empty empty empty 17 7 0 10 #fcfcfc #000000 #000000 0 1;
#X obj 876 300 tabwrite~ array_waves;
#X obj 588 93 vsl 15 128 0 1 0 0 masterVol empty Master\ Volume 0 -9 0 10 #00ff04 #000000 #000000 0 1;
#X text 889 26 Debug + Visualizers;
#X text -681 -8 Top Left I like being able to scroll;
#X text 2415 1493 Bottom Right I like being able to scroll;
#X obj 624 857 vline~;
#X obj 657 893 *~;
#X obj 703 180 s masterBang;
#X obj -121 554 r masterBang;
#X obj 972 868 r masterBang;
#X text 611 671 Noise;
#X obj 681 857 noise~;
#N canvas -169 520 1920 1136 Square1 0;
#X obj 744 472 phasor~;
#X obj 819 471 phasor~;
#X obj 818 432 * -1;
#X obj 761 534 +~;
#X obj 759 567 -~ 1;
#X msg 831 384 0;
#X msg 879 384 0.5;
#X text 737 331 Square;
#X obj 859 345 bng 15 250 50 0 empty empty empty 17 7 0 10 #ffe3c6 #000000 #000000;
#X obj 861 311 loadbang;
#X obj 749 650 *~;
#X obj 692 590 vline~;
#X obj 604 294 inlet;
#X obj 526 292 inlet;
#X text 325 289 Left Inlet: Vline envelope;
#X text 608 256 Right Inlet: frequency;
#X obj 749 708 outlet~;
#X text 533 711 Output: "Raw" square wave 1;
#X connect 0 0 3 0;
#X connect 1 0 3 1;
#X connect 2 0 1 0;
#X connect 3 0 4 0;
#X connect 4 0 10 1;
#X connect 5 0 0 1;
#X connect 6 0 1 1;
#X connect 8 0 5 0;
#X connect 8 0 6 0;
#X connect 9 0 8 0;
#X connect 10 0 16 0;
#X connect 11 0 10 0;
#X connect 12 0 0 0;
#X connect 12 0 2 0;
#X connect 13 0 11 0;
#X restore -453 811 pd Square1;
#N canvas 3737 22 1920 998 Square2 0;
#X obj 744 472 phasor~;
#X obj 819 471 phasor~;
#X obj 761 534 +~;
#X obj 759 567 -~ 1;
#X msg 831 384 0;
#X msg 879 384 0.5;
#X text 737 331 Square;
#X obj 859 345 bng 15 250 50 0 empty empty empty 17 7 0 10 #ffe3c6 #000000 #000000;
#X obj 861 311 loadbang;
#X obj 749 650 *~;
#X obj 692 590 vline~;
#X obj 604 294 inlet;
#X obj 526 292 inlet;
#X text 325 289 Left Inlet: Vline envelope;
#X text 608 256 Right Inlet: frequency;
#X obj 749 708 outlet~;
#X text 533 711 Output: "Raw" square wave 1;
#X obj 818 432 * -0.5;
#X connect 0 0 2 0;
#X connect 1 0 2 1;
#X connect 2 0 3 0;
#X connect 3 0 9 1;
#X connect 4 0 0 1;
#X connect 5 0 1 1;
#X connect 7 0 4 0;
#X connect 7 0 5 0;
#X connect 8 0 7 0;
#X connect 9 0 15 0;
#X connect 10 0 9 0;
#X connect 11 0 0 0;
#X connect 11 0 17 0;
#X connect 12 0 10 0;
#X connect 17 0 1 0;
#X restore 53 801 pd Square2;
#N canvas 1881 1121 1920 1136 Triangle 0;
#X obj 748 532 phasor~;
#X obj 823 531 phasor~;
#X obj 822 492 * -1;
#X obj 759 673 +~;
#X msg 841 438 0;
#X obj 828 557 *~ 2;
#X obj 748 565 *~ 2;
#X obj 748 592 -~ 1;
#X obj 827 585 -~ 1;
#X obj 750 624 clip~ 0 1;
#X obj 827 616 clip~ 0 1;
#X obj 840 411 bng 15 250 50 0 empty empty empty 17 7 0 10 #ffe3c6 #000000 #000000;
#X obj 840 384 loadbang;
#X obj 679 692 vline~;
#X obj 764 731 *~;
#X obj 741 437 inlet;
#X obj 615 521 inlet;
#X obj 753 793 outlet~;
#X text 519 603 Vline envelope;
#X text 699 393 Frequency;
#X connect 0 0 6 0;
#X connect 1 0 5 0;
#X connect 2 0 1 0;
#X connect 3 0 14 1;
#X connect 4 0 0 1;
#X connect 4 0 1 1;
#X connect 5 0 8 0;
#X connect 6 0 7 0;
#X connect 7 0 9 0;
#X connect 8 0 10 0;
#X connect 9 0 3 0;
#X connect 10 0 3 1;
#X connect 11 0 4 0;
#X connect 12 0 11 0;
#X connect 13 0 14 0;
#X connect 14 0 17 0;
#X connect 15 0 0 0;
#X connect 15 0 2 0;
#X connect 16 0 13 0;
#X restore 1095 862 pd Triangle;
#N canvas 114 114 1920 1136 soundExample 0;
#X obj 588 140 inlet;
#X text 363 133 Trigger bang/ start on/off;
#X floatatom 656 276 5 0 0 0 - - - 0;
#X msg 467 263 0.5 25 \, 0 100 75;
#X msg 652 209 73;
#X obj 827 395 outlet;
#X obj 342 373 outlet;
#X text 215 329 envelope output;
#X text 875 332 Frequency output;
#X obj 654 248 mtof;
#X connect 0 0 4 0;
#X connect 0 0 3 0;
#X connect 2 0 5 0;
#X connect 3 0 6 0;
#X connect 4 0 9 0;
#X connect 9 0 2 0;
#X restore -169 24 pd soundExample;
#X obj 585 295 tgl 15 0 samPlay empty Play\ Sample 17 7 0 10 #00ff04 #000000 #000000 0 1;
#N canvas 1767 507 1920 1136 musicTest 0;
#X obj 310 514 mtof;
#X floatatom 310 492 5 0 0 0 - - - 0;
#X obj 238 224 f;
#X msg 261 442 71;
#X msg 297 443 72;
#X msg 334 443 74;
#X msg 373 443 76;
#X msg 406 442 78;
#X msg 440 442 79;
#X obj 255 371 select 0 1 2 3 4 5 6 7;
#X obj 244 263 mod 8;
#X floatatom 250 328 5 0 0 0 - - - 0;
#X floatatom 351 211 5 0 0 0 - - - 0;
#X obj 361 179 f;
#X obj 401 180 * -1;
#X msg 364 141 1;
#X obj 371 106 loadbang;
#X obj 480 138 bng 16 250 50 0 empty empty Toggles\ going\ up/down\ the\ scale 0 -8 0 10 #fcfcfc #000000 #000000;
#X obj 282 225 +;
#X msg 112 509 1 16 \, 2 80 80 \, 0 80 240;
#X text 23 148 Volume Control (Smaller = quieter);
#X text 400 208 Alternates between +1 to the mod'd number and -1 to go up then down the scale;
#X text 622 505 Arbitrarily decided on ?rhythm? ?envelope? idk numbers go brrr;
#X text 503 135 Not intended to be part of the controls;
#X text 483 154 But \, theoretically \, you could mess with it;
#X obj 241 57 inlet;
#X obj 255 109 tgl 19 0 empty empty empty 0 -10 0 12 #fcfcfc #000000 #000000 0 1;
#X obj 235 177 metro 600;
#X msg 184 449 67;
#X msg 221 451 69;
#X obj 85 579 outlet;
#X obj 312 575 outlet;
#X connect 0 0 31 0;
#X connect 1 0 0 0;
#X connect 2 0 10 0;
#X connect 2 0 18 0;
#X connect 3 0 1 0;
#X connect 4 0 1 0;
#X connect 5 0 1 0;
#X connect 6 0 1 0;
#X connect 7 0 1 0;
#X connect 8 0 1 0;
#X connect 9 0 17 0;
#X connect 9 0 28 0;
#X connect 9 1 29 0;
#X connect 9 2 3 0;
#X connect 9 3 4 0;
#X connect 9 4 5 0;
#X connect 9 5 6 0;
#X connect 9 6 7 0;
#X connect 9 7 8 0;
#X connect 9 7 17 0;
#X connect 10 0 11 0;
#X connect 11 0 9 0;
#X connect 12 0 18 1;
#X connect 13 0 14 0;
#X connect 13 0 12 0;
#X connect 14 0 13 1;
#X connect 15 0 2 0;
#X connect 15 0 13 0;
#X connect 16 0 15 0;
#X connect 17 0 13 0;
#X connect 18 0 2 1;
#X connect 19 0 30 0;
#X connect 25 0 26 0;
#X connect 26 0 27 0;
#X connect 27 0 2 0;
#X connect 27 0 12 0;
#X connect 27 0 19 0;
#X connect 28 0 1 0;
#X connect 29 0 1 0;
#X restore -164 74 pd musicTest;
#X obj 698 97 r bgm;
#X obj 580 260 r piano;
#N canvas 1877 1121 1920 1136 coinSound 0;
#X obj 414 21 inlet;
#X text 363 133 Trigger bang/ start on/off;
#X floatatom 704 689 5 0 0 0 - - - 0;
#X obj 664 769 outlet;
#X obj 422 760 outlet;
#X text 226 732 envelope output;
#X text 765 752 Frequency output;
#X obj 702 661 mtof;
#X msg 479 587 2 25 \, 0 100 75;
#X msg 785 546 2 25 \, 0 100 75;
#X obj 780 227 delay 100;
#X floatatom 655 72 5 0 0 0 - - - 0;
#X floatatom 671 597 5 0 0 0 - - - 0;
#X floatatom 1000 537 5 0 0 0 - - - 0;
#X obj 638 541 + 78;
#X obj 915 170 +;
#X obj 589 179 bng 19 250 50 0 empty empty empty 0 -10 0 12 #fcfcfc #000000 #000000;
#X msg 901 100 85;
#X obj 890 43 loadbang;
#X connect 0 0 11 0;
#X connect 0 0 16 0;
#X connect 2 0 3 0;
#X connect 7 0 2 0;
#X connect 8 0 4 0;
#X connect 9 0 4 0;
#X connect 10 0 9 0;
#X connect 10 0 13 0;
#X connect 11 0 14 0;
#X connect 11 0 15 0;
#X connect 12 0 7 0;
#X connect 13 0 7 0;
#X connect 14 0 12 0;
#X connect 15 0 13 0;
#X connect 16 0 10 0;
#X connect 16 0 14 0;
#X connect 16 0 8 0;
#X connect 17 0 15 1;
#X connect 18 0 17 0;
#X restore -498 748 pd coinSound;
#X obj -497 684 r coin;
#N canvas 306 41 1073 1136 gameOver 0;
#X obj 588 140 inlet;
#X text 363 133 Trigger bang/ start on/off;
#X floatatom 656 276 5 0 0 0 - - - 0;
#X obj 827 395 outlet;
#X obj 342 373 outlet;
#X text 215 329 envelope output;
#X text 875 332 Frequency output;
#X obj 654 248 mtof;
#X msg 467 263 1 25 \, 0 600 25;
#X msg 652 209 100;
#X connect 0 0 8 0;
#X connect 0 0 9 0;
#X connect 2 0 3 0;
#X connect 7 0 2 0;
#X connect 8 0 4 0;
#X connect 9 0 7 0;
#X restore 524 794 pd gameOver;
#N canvas 93 57 1213 1136 sq2Music 0;
#X obj 379 754 mtof;
#X floatatom 379 732 5 0 0 0 - - - 0;
#X obj 238 224 f;
#X msg 252 477 71;
#X msg 298 476 72;
#X msg 412 474 74;
#X msg 448 471 76;
#X obj 255 371 select 0 1 2 3 4 5 6 7;
#X obj 244 263 mod 8;
#X floatatom 250 328 5 0 0 0 - - - 0;
#X obj 282 225 +;
#X text 23 148 Volume Control (Smaller = quieter);
#X text 688 597 Arbitrarily decided on ?rhythm? ?envelope? idk numbers go brrr;
#X obj 241 57 inlet;
#X obj 255 109 tgl 19 0 empty empty empty 0 -10 0 12 #fcfcfc #000000 #000000 0 1;
#X msg 168 470 67;
#X obj 48 500 outlet;
#X obj 381 815 outlet;
#X msg 207 471 67;
#X msg 342 511 72;
#X msg 486 476 74;
#X msg 528 478 72;
#X obj 336 477 delay 300;
#X msg 577 510 72;
#X obj 571 476 delay 300;
#X msg 355 213 1;
#X text 538 138 67 67 71 72|72 74 76 74 72|72;
#X obj 235 177 metro 600;
#X msg 31 431 0.5 25 \, 1 150 100 \, 0 50 150;
#X obj 351 -8 r timer;
#X floatatom 342 35 5 0 0 0 - - - 0;
#X floatatom 319 107 5 0 0 0 - - - 0;
#X obj 333 70 / 999;
#X obj 303 141 * 600;
#X connect 0 0 17 0;
#X connect 1 0 0 0;
#X connect 2 0 8 0;
#X connect 2 0 10 0;
#X connect 3 0 1 0;
#X connect 4 0 1 0;
#X connect 5 0 1 0;
#X connect 6 0 1 0;
#X connect 7 0 28 0;
#X connect 7 0 15 0;
#X connect 7 1 28 0;
#X connect 7 1 18 0;
#X connect 7 2 28 0;
#X connect 7 2 3 0;
#X connect 7 3 28 0;
#X connect 7 3 22 0;
#X connect 7 3 4 0;
#X connect 7 4 28 0;
#X connect 7 4 5 0;
#X connect 7 5 28 0;
#X connect 7 5 6 0;
#X connect 7 6 28 0;
#X connect 7 6 20 0;
#X connect 7 7 28 0;
#X connect 7 7 24 0;
#X connect 7 7 21 0;
#X connect 7 8 28 0;
#X connect 8 0 9 0;
#X connect 9 0 7 0;
#X connect 10 0 2 1;
#X connect 13 0 14 0;
#X connect 14 0 27 0;
#X connect 15 0 1 0;
#X connect 18 0 1 0;
#X connect 19 0 1 0;
#X connect 20 0 1 0;
#X connect 21 0 1 0;
#X connect 22 0 28 0;
#X connect 22 0 19 0;
#X connect 23 0 1 0;
#X connect 24 0 28 0;
#X connect 24 0 23 0;
#X connect 25 0 10 1;
#X connect 27 0 2 0;
#X connect 27 0 25 0;
#X connect 28 0 16 0;
#X connect 29 0 30 0;
#X connect 30 0 32 0;
#X connect 31 0 33 0;
#X connect 32 0 31 0;
#X connect 33 0 27 1;
#X restore -37 657 pd sq2Music;
#N canvas 1923 1123 1920 1136 triMusic 0;
#X obj 351 833 mtof;
#X floatatom 351 811 5 0 0 0 - - - 0;
#X obj 210 303 f;
#X obj 227 450 select 0 1 2 3 4 5 6 7;
#X obj 216 342 mod 8;
#X floatatom 222 407 5 0 0 0 - - - 0;
#X obj 254 304 +;
#X text -5 227 Volume Control (Smaller = quieter);
#X text 688 597 Arbitrarily decided on ?rhythm? ?envelope? idk numbers go brrr;
#X obj 213 136 inlet;
#X obj 227 188 tgl 19 0 empty empty empty 0 -10 0 12 #fcfcfc #000000 #000000 0 1;
#X obj 20 579 outlet;
#X obj 353 894 outlet;
#X msg 327 292 1;
#X obj 207 256 metro 300;
#X msg 134 553 55;
#X msg 178 553 60;
#X msg 224 556 59;
#X msg 293 557 60;
#X msg 477 548 62;
#X msg 384 553 62;
#X msg 420 550 64;
#X msg 519 550 60;
#X msg 3 510 1 5 \, 2 100 100 \, 0 100 100;
#X obj 427 59 r timer;
#X floatatom 418 102 5 0 0 0 - - - 0;
#X floatatom 395 174 5 0 0 0 - - - 0;
#X obj 379 208 * 300;
#X obj 409 137 / 999;
#X connect 0 0 12 0;
#X connect 1 0 0 0;
#X connect 2 0 4 0;
#X connect 2 0 6 0;
#X connect 3 0 15 0;
#X connect 3 0 23 0;
#X connect 3 1 16 0;
#X connect 3 1 23 0;
#X connect 3 2 17 0;
#X connect 3 2 23 0;
#X connect 3 3 18 0;
#X connect 3 3 23 0;
#X connect 3 4 20 0;
#X connect 3 4 23 0;
#X connect 3 5 21 0;
#X connect 3 5 23 0;
#X connect 3 6 19 0;
#X connect 3 6 23 0;
#X connect 3 7 22 0;
#X connect 3 7 23 0;
#X connect 3 8 23 0;
#X connect 4 0 5 0;
#X connect 5 0 3 0;
#X connect 6 0 2 1;
#X connect 9 0 10 0;
#X connect 10 0 14 0;
#X connect 13 0 6 1;
#X connect 14 0 2 0;
#X connect 14 0 13 0;
#X connect 15 0 1 0;
#X connect 16 0 1 0;
#X connect 17 0 1 0;
#X connect 18 0 1 0;
#X connect 19 0 1 0;
#X connect 20 0 1 0;
#X connect 21 0 1 0;
#X connect 22 0 1 0;
#X connect 23 0 11 0;
#X connect 24 0 25 0;
#X connect 25 0 28 0;
#X connect 26 0 27 0;
#X connect 27 0 14 1;
#X connect 28 0 26 0;
#X restore 978 823 pd triMusic;
#X obj 512 738 r death;
#N canvas 2 75 1920 1136 lifeSound 0;
#X obj 451 29 inlet;
#X text 226 22 Trigger bang/ start on/off;
#X floatatom 661 556 5 0 0 0 - - - 0;
#X obj 670 598 outlet;
#X obj 428 589 outlet;
#X text 232 561 envelope output;
#X text 771 581 Frequency output;
#X obj 659 528 mtof;
#X obj 704 369 delay 100;
#X msg 619 468 90;
#X msg 720 444 92;
#X obj 783 401 delay 100;
#X msg 813 475 94;
#X msg 388 461 1 10 \, 2 20 20 \, 0 10 50;
#X floatatom 573 102 5 0 0 0 - - - 0;
#X obj 615 232 select 0;
#X obj 620 305 bng 19 250 50 0 empty empty empty 0 -10 0 12 #fcfcfc #000000 #000000;
#X obj 778 312 delay 200;
#X obj 608 177 mod 5;
#X connect 0 0 14 0;
#X connect 2 0 3 0;
#X connect 7 0 2 0;
#X connect 8 0 10 0;
#X connect 8 0 13 0;
#X connect 8 0 11 0;
#X connect 9 0 7 0;
#X connect 10 0 7 0;
#X connect 11 0 12 0;
#X connect 11 0 13 0;
#X connect 12 0 7 0;
#X connect 13 0 4 0;
#X connect 14 0 18 0;
#X connect 15 0 16 0;
#X connect 15 0 17 0;
#X connect 15 1 16 0;
#X connect 16 0 13 0;
#X connect 16 0 9 0;
#X connect 16 0 8 0;
#X connect 17 0 8 0;
#X connect 18 0 15 0;
#X restore -400 749 pd lifeSound;
#X obj -404 684 r life;
#X obj 643 726 r block;
#N canvas 81 -38 1920 1136 blockSoundNoise 0;
#X obj 591 71 inlet;
#X text 363 133 Trigger bang/ start on/off;
#X floatatom 673 347 5 0 0 0 - - - 0;
#X obj 827 395 outlet;
#X obj 367 556 outlet;
#X text 240 512 envelope output;
#X text 875 332 Frequency output;
#X obj 671 319 mtof;
#X obj 616 146 bng 19 250 50 0 empty empty empty 0 -10 0 12 #fcfcfc #000000 #000000;
#X msg 39 419 1 25 \, 0 25 25 \, 2 100 50 \, 0 25 150 \, 1 25 175 \, 0 25 200;
#X floatatom 638 272 5 0 0 0 - - - 0;
#X obj 689 230 + 68;
#X obj 653 195 random 10;
#X obj 545 318 mod 2;
#X obj 449 349 select 1;
#X msg 450 442 1 25 \, 0.5 25 25 \, 2 25 150 \, 1 25 175 \, 0 25 200;
#X connect 0 0 8 0;
#X connect 2 0 3 0;
#X connect 7 0 2 0;
#X connect 8 0 9 0;
#X connect 8 0 12 0;
#X connect 9 0 4 0;
#X connect 10 0 7 0;
#X connect 10 0 13 0;
#X connect 11 0 10 0;
#X connect 12 0 11 0;
#X connect 13 0 14 0;
#X connect 14 0 9 0;
#X connect 14 1 15 0;
#X connect 15 0 4 0;
#X restore 655 782 pd blockSoundNoise;
#X obj -289 690 r block;
#N canvas 1915 0 1920 1136 blockSoundSquare 0;
#X obj 591 71 inlet;
#X text 363 133 Trigger bang/ start on/off;
#X floatatom 680 371 5 0 0 0 - - - 0;
#X obj 827 395 outlet;
#X obj 342 373 outlet;
#X text 215 329 envelope output;
#X text 875 332 Frequency output;
#X obj 678 343 mtof;
#X obj 616 146 bng 19 250 50 0 empty empty empty 0 -10 0 12 #fcfcfc #000000 #000000;
#X msg 211 224 2 10 \, 1 10 10 \, 1 10 20 \, 0.25 40 50 \, 0.0125 40 90 \, 0 60 140;
#X obj 672 230 + 45;
#X floatatom 682 271 5 0 0 0 - - - 0;
#X obj 636 195 random 10;
#X connect 0 0 8 0;
#X connect 2 0 3 0;
#X connect 7 0 2 0;
#X connect 8 0 9 0;
#X connect 8 0 12 0;
#X connect 9 0 4 0;
#X connect 10 0 11 0;
#X connect 11 0 7 0;
#X connect 12 0 10 0;
#X restore -277 746 pd blockSoundSquare;
#N canvas 85 89 1154 928 winMusic 0;
#X obj 379 754 mtof;
#X floatatom 379 732 5 0 0 0 - - - 0;
#X obj 238 224 f;
#X floatatom 250 328 5 0 0 0 - - - 0;
#X obj 282 225 +;
#X text 23 148 Volume Control (Smaller = quieter);
#X text 688 597 Arbitrarily decided on ?rhythm? ?envelope? idk numbers go brrr;
#X obj 241 57 inlet;
#X obj 255 109 tgl 19 0 empty empty empty 0 -10 0 12 #fcfcfc #000000 #000000 0 1;
#X obj 26 596 outlet;
#X obj 381 815 outlet;
#X msg 355 213 1;
#X text 538 138 67 67 71 72|72 74 76 74 72|72;
#X obj 244 263 mod 5;
#X obj 298 442 delay 100;
#X obj 328 469 delay 100;
#X obj 255 371 select 0 1 2 3 4;
#X msg 73 558 0.5 25 \, 1 150 100 \, 0 50 150;
#X msg 8 451 0.5 10 \, 1 30 10 \, 0 10 150;
#X obj 235 177 metro 300;
#X msg 164 486 76;
#X msg 205 482 76;
#X msg 421 476 72;
#X msg 340 496 74;
#X msg 295 479 67;
#X msg 249 487 67;
#X connect 0 0 10 0;
#X connect 1 0 0 0;
#X connect 2 0 4 0;
#X connect 2 0 13 0;
#X connect 3 0 16 0;
#X connect 4 0 2 1;
#X connect 7 0 8 0;
#X connect 8 0 19 0;
#X connect 11 0 4 1;
#X connect 13 0 3 0;
#X connect 14 0 15 0;
#X connect 14 0 17 0;
#X connect 14 0 24 0;
#X connect 15 0 17 0;
#X connect 15 0 23 0;
#X connect 16 0 18 0;
#X connect 16 0 20 0;
#X connect 16 1 18 0;
#X connect 16 1 21 0;
#X connect 16 2 25 0;
#X connect 16 2 18 0;
#X connect 16 2 14 0;
#X connect 16 3 18 0;
#X connect 16 3 25 0;
#X connect 16 3 14 0;
#X connect 16 4 18 0;
#X connect 16 4 22 0;
#X connect 16 5 18 0;
#X connect 17 0 9 0;
#X connect 18 0 9 0;
#X connect 19 0 2 0;
#X connect 19 0 11 0;
#X connect 20 0 1 0;
#X connect 21 0 1 0;
#X connect 22 0 1 0;
#X connect 23 0 1 0;
#X connect 24 0 1 0;
#X connect 25 0 1 0;
#X restore 78 657 pd winMusic;
#X obj 77 621 r win;
#X obj 643 153 bng 19 250 50 0 empty empty Manually\ toggle\ bgm 0 -10 0 12 #00ff04 #000000 #000000;
#N canvas 0 192 1896 1112 MusicControl 0;
#X obj 244 128 r musicControl;
#X msg 221 302 0;
#X msg 273 299 1;
#X msg 351 300 0;
#X msg 403 297 1;
#X msg 555 293 1;
#X msg 611 289 2;
#X floatatom 576 344 5 0 0 0 - - - 0;
#X obj 491 174 loadbang;
#X text 585 177 default state is bgm playing;
#X text 655 336 state controller to report to unity 1 = bgm was last playing 2 = piano was last playing;
#X obj 644 548 oscformat PD message;
#X msg 676 509 set PD message;
#X obj 644 583 s oscOut;
#X text 693 247 route 0 wont overwrite last music state;
#X obj 223 342 s bgm;
#X obj 365 343 s piano;
#X obj 259 215 select 0 1 2 3 7;
#X text 478 105 route 0 = all off route 1 = bgm only route 2 = piano only route 3 = both on??? route 7 = prompt for message;
#X obj 579 512 spigot;
#X floatatom 627 468 5 0 0 0 - - - 0;
#X msg 621 422 1;
#X msg 663 424 0;
#X obj 656 399 delay 1;
#X text 705 425 Manages the state \, iff unity prompts for current state sends a single message. Probably a more elegant way to do this \, but imma game dev \, so my only requirement is that something works;
#X connect 0 0 17 0;
#X connect 1 0 15 0;
#X connect 2 0 15 0;
#X connect 3 0 16 0;
#X connect 4 0 16 0;
#X connect 5 0 7 0;
#X connect 6 0 7 0;
#X connect 7 0 19 0;
#X connect 8 0 5 0;
#X connect 11 0 13 0;
#X connect 12 0 11 0;
#X connect 17 0 1 0;
#X connect 17 0 3 0;
#X connect 17 1 2 0;
#X connect 17 1 3 0;
#X connect 17 1 5 0;
#X connect 17 2 1 0;
#X connect 17 2 4 0;
#X connect 17 2 6 0;
#X connect 17 3 2 0;
#X connect 17 3 4 0;
#X connect 17 4 21 0;
#X connect 17 4 7 0;
#X connect 17 4 23 0;
#X connect 19 0 11 0;
#X connect 20 0 19 1;
#X connect 21 0 20 0;
#X connect 22 0 20 0;
#X connect 23 0 22 0;
#X restore 30 367 pd MusicControl;
#X text 150 369 manages which audio track to play;
#X text -680 12 Created by: Jarod Spangler \, William Chen \, Addison Camacho;
#X obj 166 808 / 3;
#X text 147 832 square wave sound kinda overwhelms;
#X text -472 968 Bass;
#X obj -369 1134 mtof;
#X obj -530 1117 bng 19 250 50 0 empty empty empty 0 -10 0 12 #fcfcfc #000000 #000000;
#X obj -535 1053 tgl 19 0 empty empty empty 0 -10 0 12 #fcfcfc #000000 #000000 0 1;
#X obj -537 1016 r masterBang;
#X floatatom -186 1166 5 0 0 0 - - - 0;
#X obj -183 1114 loadbang;
#X obj -276 1178 *~;
#X obj -243 1180 *~;
#X obj -373 1279 pack \$1 \$2;
#X obj -370 1175 t b f;
#X obj -374 1249 + 1;
#X msg -373 1217 0;
#X obj -374 1310 route 0 1;
#N canvas 599 265 646 481 stereoReverb 0;
#X obj 122 375 outlet~;
#X obj 189 375 outlet~;
#X obj 125 30 inlet~;
#X obj 211 32 inlet~;
#X obj 143 237 rev3~ 100 90 3000 20;
#X text 377 176 crossover frequency \, Hz.;
#X obj 165 203 *~ -1;
#X text 305 112 output level (dB);
#X text 335 136 liveness \, feedback percentage (0-100), f 18;
#X text 392 203 High Frequency damping \, percentage (0-100), f 23;
#X obj 346 78 loadbang;
#X msg 337 174 5000;
#X msg 292 150 25;
#X msg 357 209 0;
#X msg 256 125 110;
#X connect 2 0 4 0;
#X connect 3 0 6 0;
#X connect 4 0 0 0;
#X connect 4 1 1 0;
#X connect 6 0 4 1;
#X connect 10 0 14 0;
#X connect 10 0 11 0;
#X connect 10 0 12 0;
#X connect 10 0 13 0;
#X connect 11 0 4 4;
#X connect 12 0 4 3;
#X connect 13 0 4 5;
#X connect 14 0 4 2;
#X restore -278 1229 pd stereoReverb;
#X obj -245 1261 dac~;
#X obj -107 1129 vsl 15 128 0 1 0 0 empty masterVol empty 0 -9 0 10 #00ff04 #000000 #000000 0 1;
#X obj -539 1086 metro 1200;
#X obj -426 983 r timer;
#X floatatom -427 1025 5 0 0 0 - - - 0;
#X floatatom -432 1061 5 0 0 0 - - - 0;
#X obj -374 1026 / 999;
#X obj -376 1057 * 600;
#N canvas 358 229 635 504 bassSeq2 0;
#X obj 63 28 inlet;
#X obj 108 314 outlet;
#X obj 113 278 + 0;
#X obj 77 64 f;
#X obj 120 66 + 1;
#X obj 98 131 select 0 1 2 3;
#X floatatom 260 216 5 0 0 0 - - - 0;
#X obj 260 163 loadbang;
#X obj 97 99 mod 4;
#X msg 260 190 35;
#X msg 65 184 5;
#X msg 110 184 3;
#X msg 151 184 1;
#X msg 195 184 0;
#X connect 0 0 3 0;
#X connect 2 0 1 0;
#X connect 3 0 4 0;
#X connect 3 0 8 0;
#X connect 4 0 3 1;
#X connect 5 0 10 0;
#X connect 5 1 11 0;
#X connect 5 2 12 0;
#X connect 5 3 13 0;
#X connect 6 0 2 1;
#X connect 7 0 9 0;
#X connect 8 0 5 0;
#X connect 9 0 6 0;
#X connect 10 0 2 0;
#X connect 11 0 2 0;
#X connect 12 0 2 0;
#X connect 13 0 2 0;
#X restore -483 1361 pd bassSeq2;
#X obj -532 1244 select 0 1 2;
#N canvas 464 233 746 538 bassSeq1 0;
#X obj 63 28 inlet;
#X obj 108 314 outlet;
#X obj 113 278 + 0;
#X obj 77 64 f;
#X obj 120 66 + 1;
#X obj 98 131 select 0 1 2 3;
#X floatatom 260 216 5 0 0 0 - - - 0;
#X obj 260 163 loadbang;
#X obj 97 99 mod 4;
#X msg 260 190 35;
#X msg 65 184 1;
#X msg 110 184 3;
#X msg 151 184 5;
#X msg 195 184 0;
#X connect 0 0 3 0;
#X connect 2 0 1 0;
#X connect 3 0 4 0;
#X connect 3 0 8 0;
#X connect 4 0 3 1;
#X connect 5 0 10 0;
#X connect 5 1 11 0;
#X connect 5 2 12 0;
#X connect 5 3 13 0;
#X connect 6 0 2 1;
#X connect 7 0 9 0;
#X connect 8 0 5 0;
#X connect 9 0 6 0;
#X connect 10 0 2 0;
#X connect 11 0 2 0;
#X connect 12 0 2 0;
#X connect 13 0 2 0;
#X restore -576 1360 pd bassSeq1;
#X floatatom -532 1205 5 0 0 0 - - - 0;
#X obj -492 1127 r lowTimer;
#N canvas 801 145 969 751 bassMusic 0;
#X obj 144 21 inlet;
#X obj 101 609 outlet~;
#X obj 138 168 phasor~;
#X floatatom 144 114 5 0 0 0 - - - 0;
#X obj 79 163 osc~;
#X obj 146 75 t b f;
#X obj 142 506 *~;
#X text 190 22 Frequency input;
#X text 154 611 audio output;
#X floatatom 374 383 5 0 0 0 - - - 0;
#X floatatom 353 353 5 0 0 0 - - - 0;
#X floatatom 336 328 5 0 0 0 - - - 0;
#X floatatom 303 282 5 0 0 0 - - - 0;
#X floatatom 321 307 5 0 0 0 - - - 0;
#X text 341 280 peak level;
#X text 362 302 attack duration (ms);
#X text 376 324 decay duration (ms);
#X text 396 350 sustain level (% of peak);
#X text 408 380 release duration (ms);
#N canvas 251 52 707 458 envelope_adsr 0;
#X obj 209 53 moses;
#X obj 112 56 inlet;
#X obj 112 92 sel 0;
#X msg 111 130 stop;
#X obj 209 93 t b b;
#X obj 258 125 t b;
#X obj 174 209 f \$1;
#X obj 174 245 pack 0 \$2;
#X msg 125 245 0;
#X obj 337 145 inlet;
#X obj 377 145 inlet;
#X obj 421 145 inlet;
#X obj 461 145 inlet;
#X obj 314 239 del \$2;
#X obj 314 265 f \$4;
#X obj 390 268 * \$1;
#X obj 389 299 pack 0 \$3;
#X obj 472 301 pack 0 \$5;
#X obj 518 269 inlet;
#X obj 354 358 line~;
#X obj 354 386 outlet~;
#X obj 313 299 * 0.5;
#X connect 0 0 4 0;
#X connect 0 1 5 0;
#X connect 1 0 2 0;
#X connect 2 0 3 0;
#X connect 2 0 17 0;
#X connect 2 1 0 0;
#X connect 3 0 13 0;
#X connect 4 0 5 0;
#X connect 4 1 8 0;
#X connect 5 0 6 0;
#X connect 5 0 13 0;
#X connect 6 0 7 0;
#X connect 7 0 19 0;
#X connect 8 0 19 0;
#X connect 9 0 15 1;
#X connect 9 0 6 1;
#X connect 10 0 13 1;
#X connect 10 0 7 1;
#X connect 11 0 16 1;
#X connect 12 0 14 1;
#X connect 13 0 14 0;
#X connect 14 0 21 0;
#X connect 15 0 16 0;
#X connect 16 0 19 0;
#X connect 17 0 19 0;
#X connect 18 0 17 1;
#X connect 19 0 20 0;
#X connect 21 0 15 0;
#X restore 280 421 pd envelope_adsr;
#X msg 383 236 1;
#X obj 390 193 loadbang;
#X obj 254 320 tgl 15 0 empty empty empty 17 7 0 10 #fcfcfc #000000 #000000 0 1;
#X obj 261 202 bng 15 250 50 0 empty empty empty 17 7 0 10 #fcfcfc #000000 #000000;
#X msg 232 278 1;
#X msg 264 278 0;
#X msg 500 236 1;
#N canvas 1026 414 479 474 distortion 0;
#X obj 147 32 inlet~;
#X obj 159 351 outlet~;
#N canvas 0 23 713 460 tanh 0;
#X obj 241 65 inlet~;
#X text 493 89 __;
#X text 575 89 __;
#X text 527 89 __;
#X text 626 89 __;
#X text 493 106 1 +;
#X text 529 106 3 +;
#X text 577 106 5 +;
#X text 627 106 7 +;
#X text 443 32 As a continued fraction;
#X obj 240 148 *~;
#X obj 165 265 /~;
#X obj 165 350 /~;
#X obj 165 288 /~;
#X obj 165 321 /~;
#X text 427 78 tanh(z) = z z^2 4z^2 9z^2 ...;
#X obj 292 175 *~ 4;
#X obj 291 206 +~ 3;
#X obj 335 174 *~ 9;
#X obj 334 205 +~ 5;
#X obj 375 175 *~ 16;
#X obj 374 205 +~ 7;
#X obj 240 206 +~ 1;
#X obj 165 401 outlet~;
#X obj 165 372 *~ 576;
#X text 276 114 1/pi;
#X obj 241 89 *~ 0.30831;
#X connect 0 0 26 0;
#X connect 10 0 16 0;
#X connect 10 0 18 0;
#X connect 10 0 20 0;
#X connect 10 0 22 0;
#X connect 11 0 13 0;
#X connect 12 0 24 0;
#X connect 13 0 14 0;
#X connect 14 0 12 0;
#X connect 16 0 17 0;
#X connect 17 0 13 1;
#X connect 18 0 19 0;
#X connect 19 0 14 1;
#X connect 20 0 21 0;
#X connect 21 0 12 1;
#X connect 22 0 11 1;
#X connect 24 0 23 0;
#X connect 26 0 10 1;
#X connect 26 0 10 0;
#X connect 26 0 11 0;
#X restore 238 187 pd tanh afarnell;
#X obj 232 142 *~ 4.5;
#X obj 122 229 *~ 0.75;
#X obj 244 243 *~ 0.25;
#X connect 0 0 3 0;
#X connect 0 0 4 0;
#X connect 2 0 5 0;
#X connect 3 0 2 0;
#X connect 4 0 1 0;
#X connect 5 0 1 0;
#X restore 124 549 pd distortion;
#X obj 264 245 del 100;
#X obj 140 208 *~ 2;
#X obj 140 234 -~ 1;
#X obj 81 135 * 2;
#X obj 140 143 * 1;
#X msg 420 236 30;
#X msg 543 238 2000;
#X msg 453 238 250;
#X connect 0 0 5 0;
#X connect 2 0 29 0;
#X connect 3 0 31 0;
#X connect 3 0 32 0;
#X connect 4 0 6 0;
#X connect 5 0 23 0;
#X connect 5 1 3 0;
#X connect 6 0 27 0;
#X connect 9 0 19 5;
#X connect 10 0 19 4;
#X connect 11 0 19 3;
#X connect 12 0 19 1;
#X connect 13 0 19 2;
#X connect 19 0 6 1;
#X connect 20 0 12 0;
#X connect 21 0 20 0;
#X connect 21 0 33 0;
#X connect 21 0 26 0;
#X connect 21 0 34 0;
#X connect 21 0 35 0;
#X connect 22 0 19 0;
#X connect 23 0 24 0;
#X connect 23 0 28 0;
#X connect 24 0 22 0;
#X connect 25 0 22 0;
#X connect 26 0 10 0;
#X connect 27 0 1 0;
#X connect 28 0 25 0;
#X connect 29 0 30 0;
#X connect 30 0 6 0;
#X connect 31 0 4 0;
#X connect 32 0 2 0;
#X connect 33 0 13 0;
#X connect 34 0 9 0;
#X connect 35 0 11 0;
#X restore -283 1087 pd bassMusic;
#X text 62 948 Bass;
#X obj 165 1114 mtof;
#X obj 4 1097 bng 19 250 50 0 empty empty empty 0 -10 0 12 #fcfcfc #000000 #000000;
#X obj -1 1033 tgl 19 0 empty empty empty 0 -10 0 12 #fcfcfc #000000 #000000 0 1;
#X obj -3 996 r masterBang;
#X obj 161 1259 pack \$1 \$2;
#X obj 164 1155 t b f;
#X obj 160 1229 + 1;
#X msg 161 1197 0;
#X obj 160 1290 route 0 1;
#X obj 108 963 r timer;
#X floatatom 107 1005 5 0 0 0 - - - 0;
#X floatatom 102 1041 5 0 0 0 - - - 0;
#X obj 160 1006 / 999;
#X obj 158 1037 * 600;
#X obj 2 1224 select 0 1 2;
#X floatatom 2 1185 5 0 0 0 - - - 0;
#X obj 42 1107 r lowTimer;
#X floatatom 291 1086 5 0 0 0 - - - 0;
#X obj 294 1034 loadbang;
#X obj 318 1264 *~;
#N canvas 599 265 646 481 stereoReverb 0;
#X obj 122 375 outlet~;
#X obj 189 375 outlet~;
#X obj 125 30 inlet~;
#X obj 211 32 inlet~;
#X obj 143 237 rev3~ 100 90 3000 20;
#X text 377 176 crossover frequency \, Hz.;
#X obj 165 203 *~ -1;
#X text 305 112 output level (dB);
#X text 335 136 liveness \, feedback percentage (0-100), f 18;
#X text 392 203 High Frequency damping \, percentage (0-100), f 23;
#X obj 346 78 loadbang;
#X msg 337 174 5000;
#X msg 292 150 25;
#X msg 357 209 0;
#X msg 256 125 110;
#X connect 2 0 4 0;
#X connect 3 0 6 0;
#X connect 4 0 0 0;
#X connect 4 1 1 0;
#X connect 6 0 4 1;
#X connect 10 0 14 0;
#X connect 10 0 11 0;
#X connect 10 0 12 0;
#X connect 10 0 13 0;
#X connect 11 0 4 4;
#X connect 12 0 4 3;
#X connect 13 0 4 5;
#X connect 14 0 4 2;
#X restore 283 1313 pd stereoReverb;
#X obj 316 1345 dac~;
#X obj 369 1098 vsl 15 128 0 1 0 0 empty masterVol empty 0 -9 0 10 #00ff04 #000000 #000000 0 1;
#X obj 273 1262 *~;
#N canvas 483 231 746 538 chordSeq1 0;
#X obj 63 28 inlet;
#X obj 121 485 outlet;
#X obj 126 449 + 0;
#X obj 77 64 f;
#X obj 120 66 + 1;
#X floatatom 288 459 5 0 0 0 - - - 0;
#X obj 287 392 loadbang;
#X msg 288 433 35;
#X floatatom 95 145 5 0 0 0 - - - 0;
#X msg 9 265 0;
#X msg 261 281 5;
#X msg 331 280 1;
#X obj 97 99 mod 4;
#X obj 100 195 select 0 1 2 3;
#X obj 49 266 delay 800;
#X obj 174 282 delay 400;
#X msg 170 331 1;
#X msg 55 305 5;
#X msg 131 281 3;
#X connect 0 0 3 0;
#X connect 2 0 1 0;
#X connect 3 0 4 0;
#X connect 3 0 12 0;
#X connect 4 0 3 1;
#X connect 5 0 2 1;
#X connect 6 0 7 0;
#X connect 7 0 5 0;
#X connect 8 0 13 0;
#X connect 9 0 2 0;
#X connect 10 0 2 0;
#X connect 11 0 2 0;
#X connect 12 0 8 0;
#X connect 13 0 9 0;
#X connect 13 0 14 0;
#X connect 13 1 18 0;
#X connect 13 1 15 0;
#X connect 13 2 10 0;
#X connect 13 3 11 0;
#X connect 14 0 17 0;
#X connect 15 0 16 0;
#X connect 16 0 2 0;
#X connect 17 0 2 0;
#X connect 18 0 2 0;
#X restore -46 1308 pd chordSeq1;
#N canvas 971 224 746 538 chordSeq1 0;
#X obj 63 28 inlet;
#X obj 121 485 outlet;
#X obj 126 449 + 0;
#X obj 77 64 f;
#X obj 120 66 + 1;
#X floatatom 288 459 5 0 0 0 - - - 0;
#X obj 287 392 loadbang;
#X msg 288 433 35;
#X floatatom 95 145 5 0 0 0 - - - 0;
#X msg 331 280 1;
#X obj 97 99 mod 4;
#X obj 100 195 select 0 1 2 3;
#X obj 46 275 delay 800;
#X obj 174 282 delay 400;
#X msg 9 265 5;
#X msg 55 305 3;
#X msg 131 281 1;
#X msg 261 281 5;
#X msg 170 331 0;
#X connect 0 0 3 0;
#X connect 2 0 1 0;
#X connect 3 0 4 0;
#X connect 3 0 10 0;
#X connect 4 0 3 1;
#X connect 5 0 2 1;
#X connect 6 0 7 0;
#X connect 7 0 5 0;
#X connect 8 0 11 0;
#X connect 9 0 2 0;
#X connect 10 0 8 0;
#X connect 11 0 14 0;
#X connect 11 0 12 0;
#X connect 11 1 16 0;
#X connect 11 1 13 0;
#X connect 11 2 17 0;
#X connect 11 3 9 0;
#X connect 12 0 15 0;
#X connect 13 0 18 0;
#X connect 14 0 2 0;
#X connect 15 0 2 0;
#X connect 16 0 2 0;
#X connect 17 0 2 0;
#X connect 18 0 2 0;
#X restore 59 1307 pd chordSeq1;
#X obj -5 1066 metro 600;
#N canvas 250 66 969 846 chords 0;
#X obj 144 21 inlet;
#X obj 101 609 outlet~;
#X obj 68 209 phasor~;
#X floatatom 144 114 5 0 0 0 - - - 0;
#X obj 146 75 t b f;
#X obj 142 506 *~;
#X text 190 22 Frequency input;
#X text 154 611 audio output;
#X floatatom 374 383 5 0 0 0 - - - 0;
#X floatatom 355 354 5 0 0 0 - - - 0;
#X floatatom 338 329 5 0 0 0 - - - 0;
#X floatatom 303 282 5 0 0 0 - - - 0;
#X floatatom 321 307 5 0 0 0 - - - 0;
#X text 341 280 peak level;
#X text 362 302 attack duration (ms);
#X text 376 324 decay duration (ms);
#X text 396 350 sustain level (% of peak);
#X text 408 380 release duration (ms);
#N canvas 251 52 707 458 envelope_adsr 0;
#X obj 209 53 moses;
#X obj 112 56 inlet;
#X obj 112 92 sel 0;
#X msg 111 130 stop;
#X obj 209 93 t b b;
#X obj 258 125 t b;
#X obj 174 209 f \$1;
#X obj 174 245 pack 0 \$2;
#X msg 125 245 0;
#X obj 337 145 inlet;
#X obj 377 145 inlet;
#X obj 421 145 inlet;
#X obj 461 145 inlet;
#X obj 314 239 del \$2;
#X obj 314 265 f \$4;
#X obj 390 268 * \$1;
#X obj 389 299 pack 0 \$3;
#X obj 472 301 pack 0 \$5;
#X obj 518 269 inlet;
#X obj 354 358 line~;
#X obj 354 386 outlet~;
#X obj 313 299 * 0.5;
#X connect 0 0 4 0;
#X connect 0 1 5 0;
#X connect 1 0 2 0;
#X connect 2 0 3 0;
#X connect 2 0 17 0;
#X connect 2 1 0 0;
#X connect 3 0 13 0;
#X connect 4 0 5 0;
#X connect 4 1 8 0;
#X connect 5 0 6 0;
#X connect 5 0 13 0;
#X connect 6 0 7 0;
#X connect 7 0 19 0;
#X connect 8 0 19 0;
#X connect 9 0 15 1;
#X connect 9 0 6 1;
#X connect 10 0 13 1;
#X connect 10 0 7 1;
#X connect 11 0 16 1;
#X connect 12 0 14 1;
#X connect 13 0 14 0;
#X connect 14 0 21 0;
#X connect 15 0 16 0;
#X connect 16 0 19 0;
#X connect 17 0 19 0;
#X connect 18 0 17 1;
#X connect 19 0 20 0;
#X connect 21 0 15 0;
#X restore 280 421 pd envelope_adsr;
#X msg 383 236 1;
#X obj 390 193 loadbang;
#X obj 254 320 tgl 15 0 empty empty empty 17 7 0 10 #fcfcfc #000000 #000000 0 1;
#X obj 261 202 bng 15 250 50 0 empty empty empty 17 7 0 10 #fcfcfc #000000 #000000;
#X msg 232 278 1;
#X msg 264 278 0;
#X msg 500 236 1;
#N canvas 1026 414 479 474 distortion 0;
#X obj 147 32 inlet~;
#X obj 159 351 outlet~;
#N canvas 0 23 713 460 tanh 0;
#X obj 241 65 inlet~;
#X text 493 89 __;
#X text 575 89 __;
#X text 527 89 __;
#X text 626 89 __;
#X text 493 106 1 +;
#X text 529 106 3 +;
#X text 577 106 5 +;
#X text 627 106 7 +;
#X text 443 32 As a continued fraction;
#X obj 240 148 *~;
#X obj 165 265 /~;
#X obj 165 350 /~;
#X obj 165 288 /~;
#X obj 165 321 /~;
#X text 427 78 tanh(z) = z z^2 4z^2 9z^2 ...;
#X obj 292 175 *~ 4;
#X obj 291 206 +~ 3;
#X obj 335 174 *~ 9;
#X obj 334 205 +~ 5;
#X obj 375 175 *~ 16;
#X obj 374 205 +~ 7;
#X obj 240 206 +~ 1;
#X obj 165 401 outlet~;
#X obj 165 372 *~ 576;
#X text 276 114 1/pi;
#X obj 241 89 *~ 0.30831;
#X connect 0 0 26 0;
#X connect 10 0 16 0;
#X connect 10 0 18 0;
#X connect 10 0 20 0;
#X connect 10 0 22 0;
#X connect 11 0 13 0;
#X connect 12 0 24 0;
#X connect 13 0 14 0;
#X connect 14 0 12 0;
#X connect 16 0 17 0;
#X connect 17 0 13 1;
#X connect 18 0 19 0;
#X connect 19 0 14 1;
#X connect 20 0 21 0;
#X connect 21 0 12 1;
#X connect 22 0 11 1;
#X connect 24 0 23 0;
#X connect 26 0 10 1;
#X connect 26 0 10 0;
#X connect 26 0 11 0;
#X restore 238 187 pd tanh afarnell;
#X obj 232 142 *~ 4.5;
#X obj 122 229 *~ 0.75;
#X obj 244 243 *~ 0.25;
#X connect 0 0 3 0;
#X connect 0 0 4 0;
#X connect 2 0 5 0;
#X connect 3 0 2 0;
#X connect 4 0 1 0;
#X connect 5 0 1 0;
#X restore 124 549 pd distortion;
#X msg 420 236 100;
#X obj 264 245 del 100;
#X obj 71 249 *~ 2;
#X obj 69 303 -~ 1;
#X obj 164 203 phasor~;
#X msg 453 238 450;
#X msg 543 238 500;
#X obj 79 170 * 4;
#X obj 161 169 * 2;
#X connect 0 0 4 0;
#X connect 2 0 29 0;
#X connect 3 0 34 0;
#X connect 3 0 35 0;
#X connect 4 0 22 0;
#X connect 4 1 3 0;
#X connect 5 0 26 0;
#X connect 8 0 18 5;
#X connect 9 0 18 4;
#X connect 10 0 18 3;
#X connect 11 0 18 1;
#X connect 12 0 18 2;
#X connect 18 0 5 1;
#X connect 19 0 11 0;
#X connect 20 0 19 0;
#X connect 20 0 27 0;
#X connect 20 0 25 0;
#X connect 20 0 33 0;
#X connect 20 0 32 0;
#X connect 21 0 18 0;
#X connect 22 0 23 0;
#X connect 22 0 28 0;
#X connect 23 0 21 0;
#X connect 24 0 21 0;
#X connect 25 0 9 0;
#X connect 26 0 1 0;
#X connect 27 0 12 0;
#X connect 28 0 24 0;
#X connect 29 0 30 0;
#X connect 30 0 5 0;
#X connect 31 0 5 0;
#X connect 32 0 10 0;
#X connect 33 0 8 0;
#X connect 34 0 2 0;
#X connect 35 0 31 0;
#X restore 261 1171 pd chords;
#X msg -185 1138 0.05;
#X msg 292 1058 0.15;
#N canvas 13 38 1499 862 jump 0;
#X obj 228 14 inlet;
#X text 177 126 Trigger bang/ start on/off;
#X floatatom 518 682 5 0 0 0 - - - 0;
#X obj 478 762 outlet;
#X obj 236 753 outlet;
#X text 40 725 envelope output;
#X text 579 745 Frequency output;
#X obj 516 654 mtof;
#X msg 293 580 2 25 \, 0 100 75;
#X msg 599 539 2 25 \, 0 100 75;
#X obj 594 220 delay 100;
#X floatatom 458 114 5 0 0 0 - - - 0;
#X floatatom 485 590 5 0 0 0 - - - 0;
#X floatatom 814 530 5 0 0 0 - - - 0;
#X obj 1191 168 +;
#X obj 403 172 bng 19 250 50 0 empty empty empty 0 -10 0 12 #fcfcfc #000000 #000000;
#X obj 704 36 loadbang;
#X obj 452 534 + 1;
#X msg 740 133 57;
#X connect 0 0 11 0;
#X connect 0 0 15 0;
#X connect 2 0 3 0;
#X connect 7 0 2 0;
#X connect 8 0 4 0;
#X connect 9 0 4 0;
#X connect 10 0 9 0;
#X connect 10 0 13 0;
#X connect 11 0 17 0;
#X connect 12 0 7 0;
#X connect 13 0 7 0;
#X connect 15 0 10 0;
#X connect 15 0 8 0;
#X connect 15 0 17 0;
#X connect 16 0 18 0;
#X connect 17 0 12 0;
#X connect 18 0 13 0;
#X restore -626 750 pd jump;
#X obj -630 679 r jump;
#X connect 6 0 10 0;
#X connect 8 0 9 0;
#X connect 10 0 13 0;
#X connect 11 0 10 0;
#X connect 14 0 21 0;
#X connect 15 0 35 0;
#X connect 16 0 15 0;
#X connect 17 0 19 0;
#X connect 19 0 33 0;
#X connect 20 0 19 0;
#X connect 21 0 23 0;
#X connect 22 0 19 0;
#X connect 23 0 31 0;
#X connect 24 0 25 0;
#X connect 25 0 26 0;
#X connect 27 0 20 0;
#X connect 28 0 30 0;
#X connect 29 0 27 0;
#X connect 30 0 27 1;
#X connect 31 0 24 0;
#X connect 33 0 32 0;
#X connect 33 0 32 1;
#X connect 34 0 33 1;
#X connect 35 0 14 0;
#X connect 37 0 38 0;
#X connect 37 0 38 1;
#X connect 39 0 37 1;
#X connect 40 0 41 0;
#X connect 40 0 41 1;
#X connect 43 0 92 0;
#X connect 44 0 45 0;
#X connect 44 0 45 1;
#X connect 47 0 48 0;
#X connect 47 0 48 1;
#X connect 49 0 47 1;
#X connect 50 0 44 1;
#X connect 52 0 54 0;
#X connect 53 0 52 0;
#X connect 59 0 60 0;
#X connect 60 0 47 0;
#X connect 62 0 77 0;
#X connect 63 0 78 0;
#X connect 65 0 60 1;
#X connect 66 0 37 0;
#X connect 67 0 40 0;
#X connect 68 0 44 0;
#X connect 72 0 61 0;
#X connect 73 0 70 0;
#X connect 74 0 66 0;
#X connect 74 1 66 1;
#X connect 75 0 74 0;
#X connect 76 0 59 0;
#X connect 76 1 65 0;
#X connect 77 0 67 0;
#X connect 77 1 67 1;
#X connect 78 0 68 0;
#X connect 78 1 68 1;
#X connect 79 0 76 0;
#X connect 80 0 66 0;
#X connect 80 1 66 1;
#X connect 81 0 80 0;
#X connect 82 0 83 0;
#X connect 83 0 59 0;
#X connect 83 1 65 0;
#X connect 84 0 85 0;
#X connect 85 0 66 0;
#X connect 85 1 66 1;
#X connect 86 0 67 0;
#X connect 86 1 67 1;
#X connect 87 0 86 0;
#X connect 87 0 77 0;
#X connect 88 0 61 0;
#X connect 92 0 40 1;
#X connect 95 0 104 0;
#X connect 96 0 120 0;
#X connect 97 0 111 0;
#X connect 98 0 97 0;
#X connect 99 0 110 0;
#X connect 100 0 152 0;
#X connect 101 0 108 0;
#X connect 102 0 108 1;
#X connect 103 0 107 0;
#X connect 104 0 106 0;
#X connect 104 1 103 1;
#X connect 105 0 103 0;
#X connect 106 0 105 0;
#X connect 107 1 122 0;
#X connect 108 0 109 0;
#X connect 108 1 109 1;
#X connect 110 0 101 1;
#X connect 110 0 102 1;
#X connect 111 0 96 0;
#X connect 112 0 113 0;
#X connect 113 0 115 0;
#X connect 114 0 116 0;
#X connect 115 0 114 0;
#X connect 116 0 111 1;
#X connect 117 0 95 0;
#X connect 118 0 119 0;
#X connect 118 1 117 0;
#X connect 119 0 95 0;
#X connect 120 0 118 0;
#X connect 121 0 120 0;
#X connect 122 0 101 0;
#X connect 122 0 102 0;
#X connect 124 0 129 0;
#X connect 125 0 139 0;
#X connect 126 0 150 0;
#X connect 127 0 126 0;
#X connect 128 0 132 0;
#X connect 129 0 131 0;
#X connect 129 1 128 1;
#X connect 130 0 128 0;
#X connect 131 0 130 0;
#X connect 132 1 151 0;
#X connect 133 0 134 0;
#X connect 134 0 136 0;
#X connect 135 0 137 0;
#X connect 136 0 135 0;
#X connect 137 0 150 1;
#X connect 138 0 148 0;
#X connect 138 1 149 0;
#X connect 139 0 138 0;
#X connect 140 0 139 0;
#X connect 141 0 146 0;
#X connect 142 0 153 0;
#X connect 143 0 144 1;
#X connect 144 0 145 0;
#X connect 144 1 145 1;
#X connect 146 0 143 1;
#X connect 146 0 147 1;
#X connect 147 0 144 0;
#X connect 148 0 124 0;
#X connect 149 0 124 0;
#X connect 150 0 125 0;
#X connect 151 0 147 0;
#X connect 151 0 143 0;
#X connect 152 0 99 0;
#X connect 153 0 141 0;
#X connect 154 0 66 0;
#X connect 154 1 66 1;
#X connect 155 0 154 0;
